<?xml version="1.0" encoding="utf-8"?>
<!-- Generator: Adobe Illustrator 17.0.0, SVG Export Plug-In . SVG Version: 6.00 Build 0)  -->
<!DOCTYPE svg PUBLIC "-//W3C//DTD SVG 1.1//EN" "http://www.w3.org/Graphics/SVG/1.1/DTD/svg11.dtd">
<svg version="1.1" id="Layer_1" xmlns="http://www.w3.org/2000/svg" xmlns:xlink="http://www.w3.org/1999/xlink" x="0px" y="0px"
	 width="132.494px" height="24px" viewBox="0 0 132.494 24" enable-background="new 0 0 132.494 24" xml:space="preserve">
<rect x="-301.096" y="-123" fill="#3A4245" stroke="#FFFFFF" width="682" height="256"/>
<g>
	<g>
		<path fill="#FFFFFF" d="M12.607,16.81v6.72H6.784v-6.72L0,0.332h6.432l3.233,10.527l0.064,0.149l3.199-10.527l6.432-0.15
			L12.607,16.81z"/>
		<path fill="#FFFFFF" d="M23.328,23.681h-5.855l6.496-23.199h6.654l6.496,23.199h-5.92l-0.992-4.385h-5.919L23.328,23.681z
			 M25.248,15.041h4l-1.984-8.864H27.2L25.248,15.041z"/>
		<path fill="#FFFFFF" d="M45.055,15.009h-1.504v8.672h-5.855V0.482h7.969c5.535,0,7.775,2.816,7.775,7.007
			c0,2.943-1.088,5.119-3.264,6.143l4.383,10.048h-6.207L45.055,15.009z M43.551,10.688H45.6c1.664,0,2.047-0.895,2.047-2.783
			c0-2.144-0.512-2.72-2.143-2.72h-1.953V10.688z"/>
		<path fill="#FFFFFF" d="M115.438,0.482v23.199h-5.313V11.617h-0.063l-4.385,8.863h-2.559l-4.385-8.863H98.67v12.064h-5.279V0.482
			h5.535l5.439,12.576h0.064l5.473-12.576H115.438z"/>
		<path fill="#FFFFFF" d="M132.301,5.474l-3.936,1.76c-0.641-1.792-1.729-2.496-3.168-2.496c-1.504,0-2.111,0.544-2.111,1.664
			c0,3.136,9.408,3.392,9.408,10.719c0,4.352-2.977,6.88-7.584,6.88c-3.648,0-7.072-2.208-7.904-5.759l4.32-1.473
			c0.641,1.889,2.207,2.72,3.52,2.72c1.633,0,2.207-0.544,2.207-1.663c0-3.904-9.727-3.809-9.727-11.072
			c0-3.68,2.783-6.591,7.168-6.591C128.621,0.162,131.021,2.274,132.301,5.474z"/>
	</g>
	<polygon fill="#AEE0F2" points="67.492,8 60.494,12 67.492,16 	"/>
	<polygon fill="#AEE0F2" points="79.494,8 86.494,12 79.494,16 	"/>
	<rect x="65.494" y="10" fill="#AEE0F2" width="16" height="4"/>
	<path fill="#13B5CA" d="M89.559,0h-0.065H76.559c-1.104,0-2,0.896-2,2v7h3.935V4h9.065v16h-9.065v-5h-3.935v7c0,1.104,0.896,2,2,2
		h12.935c1.104,0,2-0.896,2-2V2C91.494,0.896,90.664,0,89.559,0z"/>
	<path fill="#13B5CA" d="M68.559,15v5h-9.065V4h9.065v5h3.935V2c0-1.105-0.83-2-1.935-2h-0.065H57.559c-1.104,0-2,0.896-2,2v20
		c0,1.104,0.896,2,2,2h12.935c1.104,0,2-0.896,2-2v-7H68.559z"/>
</g>
<g>
	<g>
		<path fill="#4D4D4F" d="M-2.113,273.403v6.72h-5.823v-6.72l-6.784-16.478h6.432l3.232,10.527l0.064,0.149l3.199-10.527l6.432-0.15
			L-2.113,273.403z"/>
		<path fill="#4D4D4F" d="M8.607,280.273H2.752l6.496-23.199h6.654l6.496,23.199h-5.92l-0.992-4.385H9.567L8.607,280.273z
			 M10.527,271.633h4l-1.984-8.864h-0.063L10.527,271.633z"/>
		<path fill="#4D4D4F" d="M30.334,271.601H28.83v8.672h-5.855v-23.199h7.969c5.535,0,7.775,2.816,7.775,7.007
			c0,2.943-1.088,5.119-3.264,6.144l4.383,10.048h-6.207L30.334,271.601z M28.83,267.281h2.049c1.664,0,2.047-0.896,2.047-2.783
			c0-2.144-0.512-2.72-2.143-2.72H28.83V267.281z"/>
		<path fill="#4D4D4F" d="M100.717,257.074v23.199h-5.312V268.21h-0.063l-4.385,8.863h-2.559l-4.385-8.863h-0.064v12.063H78.67
			v-23.199h5.535l5.439,12.576h0.064l5.473-12.576H100.717z"/>
		<path fill="#4D4D4F" d="M117.58,262.066l-3.936,1.76c-0.641-1.792-1.729-2.496-3.168-2.496c-1.504,0-2.111,0.544-2.111,1.663
			c0,3.136,9.408,3.392,9.408,10.719c0,4.352-2.977,6.88-7.584,6.88c-3.648,0-7.072-2.208-7.904-5.759l4.32-1.473
			c0.641,1.889,2.207,2.72,3.52,2.72c1.633,0,2.207-0.544,2.207-1.663c0-3.904-9.727-3.809-9.727-11.072
			c0-3.68,2.783-6.591,7.168-6.591C113.9,256.754,116.301,258.866,117.58,262.066z"/>
	</g>
	<polygon fill="#AEE0F2" points="52.771,264.592 45.773,268.592 52.771,272.592 	"/>
	<polygon fill="#AEE0F2" points="64.773,264.592 71.773,268.592 64.773,272.592 	"/>
	<rect x="50.773" y="266.592" fill="#AEE0F2" width="16" height="4"/>
	<path fill="#13B5CA" d="M74.838,256.592h-0.064H61.838c-1.104,0-2,0.895-2,2v7h3.936v-5h9.064v16h-9.064v-5h-3.936v7
		c0,1.104,0.896,2,2,2h12.936c1.104,0,2-0.896,2-2v-20C76.773,257.488,75.943,256.592,74.838,256.592z"/>
	<path fill="#13B5CA" d="M53.838,271.592v5h-9.064v-16h9.064v5h3.936v-7c0-1.105-0.83-2-1.936-2h-0.064H42.838c-1.104,0-2,0.895-2,2
		v20c0,1.104,0.896,2,2,2h12.936c1.104,0,2-0.896,2-2v-7H53.838z"/>
</g>
</svg>
