<?xml version="1.0" encoding="utf-8"?>
<!-- Generator: Adobe Illustrator 17.0.0, SVG Export Plug-In . SVG Version: 6.00 Build 0)  -->
<!DOCTYPE svg PUBLIC "-//W3C//DTD SVG 1.1//EN" "http://www.w3.org/Graphics/SVG/1.1/DTD/svg11.dtd">
<svg version="1.1" id="Layer_1" xmlns="http://www.w3.org/2000/svg" xmlns:xlink="http://www.w3.org/1999/xlink" x="0px" y="0px"
	 width="28px" height="18.7px" viewBox="0 0 28 18.7" enable-background="new 0 0 28 18.7" xml:space="preserve">
<g>
	<polygon fill="#AFE1F1" points="9.298,6.233 3.846,9.35 9.298,12.467 	"/>
	<polygon fill="#AFE1F1" points="18.65,6.233 24.104,9.35 18.65,12.467 	"/>
	<rect x="7.741" y="7.792" fill="#AFE1F1" width="12.467" height="3.117"/>
	<path fill="#15B4C9" d="M26.492,0h-0.05H16.363c-0.86,0-1.558,0.698-1.558,1.558v5.454h3.066V3.117h7.063v12.467h-7.063v-3.896
		h-3.066v5.454c0,0.861,0.699,1.558,1.558,1.558h10.079c0.86,0,1.558-0.698,1.558-1.558V1.558C28,0.698,27.353,0,26.492,0z"/>
	<path fill="#15B4C9" d="M10.129,11.688v3.896H3.066V3.117h7.063v3.896h3.066V1.558C13.196,0.698,12.549,0,11.688,0h-0.05H1.558
		C0.699,0,0,0.698,0,1.558v15.583C0,18.002,0.699,18.7,1.558,18.7h10.079c0.86,0,1.558-0.698,1.558-1.558v-5.454H10.129z"/>
</g>
</svg>
